<mxfile host="app.diagrams.net" modified="2023-07-12T09:38:14.530Z" agent="Mozilla/5.0 (Windows NT 10.0; Win64; x64) AppleWebKit/537.36 (KHTML, like Gecko) Chrome/114.0.0.0 Safari/537.36" etag="4lSi1AQSA35fzB_X6W-z" version="21.6.1" type="github">
  <diagram id="6a731a19-8d31-9384-78a2-239565b7b9f0" name="Page-1">
    <mxGraphModel dx="1434" dy="764" grid="1" gridSize="10" guides="1" tooltips="1" connect="1" arrows="1" fold="1" page="1" pageScale="1" pageWidth="1169" pageHeight="827" background="#ffffff" math="0" shadow="0">
      <root>
        <mxCell id="0" />
        <mxCell id="1" parent="0" />
        <mxCell id="54" value="" style="edgeStyle=elbowEdgeStyle;elbow=horizontal;exitX=0;exitY=0.5;exitPerimeter=0;entryX=0.095;entryY=0.5;entryPerimeter=0;fontStyle=1;strokeColor=#003366;strokeWidth=1;html=1;" parent="1" source="37" edge="1">
          <mxGeometry width="100" height="100" as="geometry">
            <mxPoint y="100" as="sourcePoint" />
            <mxPoint x="255.60500000000002" y="290" as="targetPoint" />
            <Array as="points">
              <mxPoint x="120" y="970" />
            </Array>
          </mxGeometry>
        </mxCell>
        <mxCell id="Z8dxpY1uBYHrr5jI8FlL-59" value="" style="rounded=0;whiteSpace=wrap;html=1;fillColor=#dae8fc;strokeColor=#6c8ebf;gradientColor=none;labelBackgroundColor=none;" vertex="1" parent="1">
          <mxGeometry x="100" width="1260" height="700" as="geometry" />
        </mxCell>
        <mxCell id="Z8dxpY1uBYHrr5jI8FlL-55" value="buried_interface_call_hour(以小时维度统计)" style="rounded=0;whiteSpace=wrap;html=1;fillColor=#e1d5e7;strokeColor=#9673a6;" vertex="1" parent="1">
          <mxGeometry x="580" y="180" width="350" height="60" as="geometry" />
        </mxCell>
        <mxCell id="Z8dxpY1uBYHrr5jI8FlL-57" value="请求数据量统计(以小时维度统计)" style="rounded=0;whiteSpace=wrap;html=1;fillColor=#ffe6cc;strokeColor=#d79b00;" vertex="1" parent="1">
          <mxGeometry x="585" y="400" width="350" height="60" as="geometry" />
        </mxCell>
        <mxCell id="Z8dxpY1uBYHrr5jI8FlL-58" value="请求数据量统计(以天维度统计)" style="rounded=0;whiteSpace=wrap;html=1;fillColor=#f8cecc;strokeColor=#b85450;" vertex="1" parent="1">
          <mxGeometry x="585" y="510" width="350" height="60" as="geometry" />
        </mxCell>
        <mxCell id="Z8dxpY1uBYHrr5jI8FlL-63" value="&lt;font style=&quot;font-size: 14px;&quot;&gt;call_count:日期:小时:用户id:appkeyId&lt;/font&gt;" style="text;html=1;strokeColor=none;fillColor=none;align=center;verticalAlign=middle;whiteSpace=wrap;rounded=0;" vertex="1" parent="1">
          <mxGeometry x="180" y="192.5" width="250" height="37.5" as="geometry" />
        </mxCell>
        <mxCell id="Z8dxpY1uBYHrr5jI8FlL-70" value="" style="shape=flexArrow;endArrow=classic;startArrow=classic;html=1;rounded=0;" edge="1" parent="1">
          <mxGeometry width="100" height="100" relative="1" as="geometry">
            <mxPoint x="420" y="209.5" as="sourcePoint" />
            <mxPoint x="580" y="209.5" as="targetPoint" />
          </mxGeometry>
        </mxCell>
        <mxCell id="Z8dxpY1uBYHrr5jI8FlL-71" value="同步该Key" style="edgeLabel;html=1;align=center;verticalAlign=middle;resizable=0;points=[];" vertex="1" connectable="0" parent="Z8dxpY1uBYHrr5jI8FlL-70">
          <mxGeometry x="-0.3" y="6" relative="1" as="geometry">
            <mxPoint x="14" y="7" as="offset" />
          </mxGeometry>
        </mxCell>
        <mxCell id="Z8dxpY1uBYHrr5jI8FlL-73" value="" style="endArrow=none;dashed=1;html=1;dashPattern=1 3;strokeWidth=2;rounded=0;" edge="1" parent="1">
          <mxGeometry width="50" height="50" relative="1" as="geometry">
            <mxPoint x="580" y="270" as="sourcePoint" />
            <mxPoint x="940" y="270" as="targetPoint" />
          </mxGeometry>
        </mxCell>
        <mxCell id="Z8dxpY1uBYHrr5jI8FlL-75" value="" style="endArrow=none;dashed=1;html=1;dashPattern=1 3;strokeWidth=2;rounded=0;" edge="1" parent="1">
          <mxGeometry width="50" height="50" relative="1" as="geometry">
            <mxPoint x="585" y="380" as="sourcePoint" />
            <mxPoint x="945" y="380" as="targetPoint" />
          </mxGeometry>
        </mxCell>
        <mxCell id="Z8dxpY1uBYHrr5jI8FlL-76" value="" style="endArrow=none;dashed=1;html=1;dashPattern=1 3;strokeWidth=2;rounded=0;" edge="1" parent="1">
          <mxGeometry width="50" height="50" relative="1" as="geometry">
            <mxPoint x="585" y="490" as="sourcePoint" />
            <mxPoint x="945" y="490" as="targetPoint" />
          </mxGeometry>
        </mxCell>
        <mxCell id="Z8dxpY1uBYHrr5jI8FlL-78" value="statistics:number_of_calls:日期:小时:用户id:appkeyId" style="text;html=1;strokeColor=none;fillColor=none;align=center;verticalAlign=middle;whiteSpace=wrap;rounded=0;" vertex="1" parent="1">
          <mxGeometry x="120" y="411.25" width="310" height="38.75" as="geometry" />
        </mxCell>
        <mxCell id="Z8dxpY1uBYHrr5jI8FlL-80" value="" style="shape=flexArrow;endArrow=classic;startArrow=classic;html=1;rounded=0;" edge="1" parent="1">
          <mxGeometry width="100" height="100" relative="1" as="geometry">
            <mxPoint x="425" y="429.5" as="sourcePoint" />
            <mxPoint x="585" y="429.5" as="targetPoint" />
          </mxGeometry>
        </mxCell>
        <mxCell id="Z8dxpY1uBYHrr5jI8FlL-81" value="同步该Key" style="edgeLabel;html=1;align=center;verticalAlign=middle;resizable=0;points=[];" vertex="1" connectable="0" parent="Z8dxpY1uBYHrr5jI8FlL-80">
          <mxGeometry x="-0.3" y="6" relative="1" as="geometry">
            <mxPoint x="14" y="7" as="offset" />
          </mxGeometry>
        </mxCell>
        <mxCell id="Z8dxpY1uBYHrr5jI8FlL-84" value="" style="shape=flexArrow;endArrow=classic;html=1;rounded=0;" edge="1" parent="1">
          <mxGeometry width="50" height="50" relative="1" as="geometry">
            <mxPoint x="754.5" y="460" as="sourcePoint" />
            <mxPoint x="754.5" y="510" as="targetPoint" />
          </mxGeometry>
        </mxCell>
        <mxCell id="Z8dxpY1uBYHrr5jI8FlL-85" value="" style="shape=flexArrow;endArrow=classic;html=1;rounded=0;" edge="1" parent="1">
          <mxGeometry width="50" height="50" relative="1" as="geometry">
            <mxPoint x="754.5" y="240" as="sourcePoint" />
            <mxPoint x="754.5" y="290" as="targetPoint" />
          </mxGeometry>
        </mxCell>
        <mxCell id="Z8dxpY1uBYHrr5jI8FlL-99" value="&lt;h1&gt;同步Redis数据至数据库：&lt;/h1&gt;&lt;p&gt;&lt;/p&gt;当前表内数据只统计前一小时或前一天的数据，实时数据可从redis获取！" style="text;html=1;strokeColor=none;fillColor=none;spacing=5;spacingTop=-20;whiteSpace=wrap;overflow=hidden;rounded=0;" vertex="1" parent="1">
          <mxGeometry x="575" y="90" width="385" height="80" as="geometry" />
        </mxCell>
        <mxCell id="Z8dxpY1uBYHrr5jI8FlL-102" value="buried_interface_call_day(以天维度统计)" style="rounded=0;whiteSpace=wrap;html=1;fillColor=#d5e8d4;strokeColor=#82b366;" vertex="1" parent="1">
          <mxGeometry x="585" y="290" width="350" height="60" as="geometry" />
        </mxCell>
        <mxCell id="Z8dxpY1uBYHrr5jI8FlL-103" value="每小时同步前一小时的数据" style="ellipse;shape=cloud;whiteSpace=wrap;html=1;" vertex="1" parent="1">
          <mxGeometry x="970" y="170" width="120" height="80" as="geometry" />
        </mxCell>
        <mxCell id="Z8dxpY1uBYHrr5jI8FlL-104" value="每小时同步前一小时的数据" style="ellipse;shape=cloud;whiteSpace=wrap;html=1;" vertex="1" parent="1">
          <mxGeometry x="970" y="390" width="120" height="80" as="geometry" />
        </mxCell>
        <mxCell id="Z8dxpY1uBYHrr5jI8FlL-105" value="每日凌晨同步昨天24小时的数据" style="ellipse;shape=cloud;whiteSpace=wrap;html=1;" vertex="1" parent="1">
          <mxGeometry x="970" y="500" width="120" height="80" as="geometry" />
        </mxCell>
        <mxCell id="Z8dxpY1uBYHrr5jI8FlL-106" value="每日凌晨同步昨天24小时的数据" style="ellipse;shape=cloud;whiteSpace=wrap;html=1;" vertex="1" parent="1">
          <mxGeometry x="970" y="280" width="120" height="80" as="geometry" />
        </mxCell>
      </root>
    </mxGraphModel>
  </diagram>
</mxfile>
